<?xml version="1.0" encoding="UTF-8"?>
<svg xmlns="http://www.w3.org/2000/svg" xmlns:xlink="http://www.w3.org/1999/xlink" width="140px" height="140px" viewBox="0 0 140 140" version="1.1">
<g id="surface1">
<path style=" stroke:none;fill-rule:nonzero;fill:rgb(100%,100%,100%);fill-opacity:1;" d="M 134.167969 70 L 99.167969 70 L 99.167969 58.332031 L 118.941406 35 L 99.167969 35 L 99.167969 23.332031 L 134.167969 23.332031 L 134.167969 35 L 114.449219 58.332031 L 134.167969 58.332031 L 134.167969 70 M 87.5 93.332031 L 52.5 93.332031 L 52.5 81.667969 L 72.273438 58.332031 L 52.5 58.332031 L 52.5 46.667969 L 87.5 46.667969 L 87.5 58.332031 L 67.785156 81.667969 L 87.5 81.667969 L 87.5 93.332031 M 40.832031 116.667969 L 5.832031 116.667969 L 5.832031 105 L 25.609375 81.667969 L 5.832031 81.667969 L 5.832031 70 L 40.832031 70 L 40.832031 81.667969 L 21.117188 105 L 40.832031 105 Z M 40.832031 116.667969 "/>
</g>
</svg>