<?xml version="1.0" encoding="UTF-8"?>
<svg xmlns="http://www.w3.org/2000/svg" xmlns:xlink="http://www.w3.org/1999/xlink" width="140px" height="140px" viewBox="0 0 140 140" version="1.1">
<g id="surface1">
<path style=" stroke:none;fill-rule:nonzero;fill:rgb(100%,100%,100%);fill-opacity:1;" d="M 82.132812 90.941406 L 97.242188 75.832031 L 40.832031 75.832031 L 40.832031 64.167969 L 97.242188 64.167969 L 82.132812 49.058594 L 90.417969 40.832031 L 119.582031 70 L 90.417969 99.167969 L 82.132812 90.941406 M 110.832031 17.5 C 117.277344 17.5 122.5 22.722656 122.5 29.167969 L 122.5 56.410156 L 110.832031 44.742188 L 110.832031 29.167969 L 29.167969 29.167969 L 29.167969 110.832031 L 110.832031 110.832031 L 110.832031 95.257812 L 122.5 83.589844 L 122.5 110.832031 C 122.5 117.277344 117.277344 122.5 110.832031 122.5 L 29.167969 122.5 C 22.691406 122.5 17.5 117.25 17.5 110.832031 L 17.5 29.167969 C 17.5 22.691406 22.691406 17.5 29.167969 17.5 Z M 110.832031 17.5 "/>
</g>
</svg>