<?xml version="1.0" encoding="UTF-8"?>
<svg xmlns="http://www.w3.org/2000/svg" xmlns:xlink="http://www.w3.org/1999/xlink" width="140px" height="140px" viewBox="0 0 140 140" version="1.1">
<g id="surface1">
<path style=" stroke:none;fill-rule:nonzero;fill:rgb(100%,100%,100%);fill-opacity:1;" d="M 96.601562 31.734375 L 88.140625 40.191406 C 98.234375 46.316406 105 57.339844 105 70 C 105 89.328125 89.328125 105 70 105 C 50.671875 105 35 89.328125 35 70 C 35 57.339844 41.765625 46.316406 51.800781 40.132812 L 43.398438 31.734375 C 31.265625 40.132812 23.332031 54.132812 23.332031 70 C 23.332031 95.773438 44.226562 116.667969 70 116.667969 C 95.773438 116.667969 116.667969 95.773438 116.667969 70 C 116.667969 54.132812 108.734375 40.132812 96.601562 31.734375 M 75.832031 17.5 L 64.167969 17.5 L 64.167969 75.832031 L 75.832031 75.832031 "/>
</g>
</svg>