<?xml version="1.0" encoding="UTF-8"?>
<svg xmlns="http://www.w3.org/2000/svg" xmlns:xlink="http://www.w3.org/1999/xlink" width="140px" height="140px" viewBox="0 0 140 140" version="1.1">
<g id="surface1">
<path style=" stroke:none;fill-rule:nonzero;fill:rgb(100%,100%,100%);fill-opacity:1;" d="M 70 23.332031 C 82.25 23.332031 93.917969 28 102.667969 36.75 C 120.75 54.832031 120.75 84.582031 102.667969 102.667969 C 92.167969 113.75 77.582031 117.832031 63.582031 116.082031 L 66.5 104.417969 C 76.417969 105.582031 86.917969 102.082031 94.5 94.5 C 107.917969 81.082031 107.917969 58.917969 94.5 44.917969 C 88.082031 38.5 78.75 35 70 35 L 70 61.832031 L 40.832031 32.667969 L 70 3.5 L 70 23.332031 M 36.75 102.667969 C 21.582031 87.5 19.25 64.167969 29.75 46.082031 L 38.5 54.832031 C 32.082031 67.667969 34.417969 84 45.5 94.5 C 48.417969 97.417969 51.917969 99.75 56 101.5 L 52.5 113.167969 C 46.667969 110.832031 41.417969 107.332031 36.75 102.667969 Z M 36.75 102.667969 "/>
</g>
</svg>